<?xml version="1.0" encoding="UTF-8" standalone="no"?>
<svg
   xmlns:dc="http://purl.org/dc/elements/1.1/"
   xmlns:cc="http://creativecommons.org/ns#"
   xmlns:rdf="http://www.w3.org/1999/02/22-rdf-syntax-ns#"
   xmlns:svg="http://www.w3.org/2000/svg"
   xmlns="http://www.w3.org/2000/svg"
   xmlns:sodipodi="http://sodipodi.sourceforge.net/DTD/sodipodi-0.dtd"
   xmlns:inkscape="http://www.inkscape.org/namespaces/inkscape"
   version="1.1"
   width="595.27557"
   height="841.88977"
   id="svg3730"
   viewBox="0 0 595.27557 841.88977"
   sodipodi:docname="logo.svg"
   inkscape:version="0.92.4 (5da689c313, 2019-01-14)">
  <metadata
     id="metadata3736">
    <rdf:RDF>
      <cc:Work
         rdf:about="">
        <dc:format>image/svg+xml</dc:format>
        <dc:type
           rdf:resource="http://purl.org/dc/dcmitype/StillImage" />
        <dc:title></dc:title>
      </cc:Work>
    </rdf:RDF>
  </metadata>
  <defs
     id="defs3734" />
  <sodipodi:namedview
     pagecolor="#ffffff"
     bordercolor="#666666"
     borderopacity="1"
     objecttolerance="10"
     gridtolerance="10"
     guidetolerance="10"
     inkscape:pageopacity="0"
     inkscape:pageshadow="2"
     inkscape:window-width="1366"
     inkscape:window-height="705"
     id="namedview3732"
     showgrid="false"
     inkscape:zoom="2.5561541"
     inkscape:cx="276.31828"
     inkscape:cy="579.24186"
     inkscape:window-x="-8"
     inkscape:window-y="-8"
     inkscape:window-maximized="1"
     inkscape:current-layer="Layer1000"
     inkscape:snap-text-baseline="true" />
  <g
     id="Layer1000">
    <g
       id="Layer1001">
      <text
         x="214.6572"
         y="241.8721"
         id="text3715">
        <tspan
           font-size="65.0000"
           id="tspan3713"
           style="font-size:65px;font-family:Arial;fill:#58536c">Now</tspan>
      </text>
      <text
         x="176.81062"
         y="293.58957"
         id="text3719">
        <tspan
           font-size="65.0000"
           id="tspan3717"
           style="font-size:65px;font-family:Arial;fill:#3a3a3a">Job</tspan>
      </text>
    </g>
    <g
       id="Layer1002">
      <path
         d="m 304.58163,244.45991 c 12.1161,0 21.938,9.8219 21.938,21.938 0,12.1161 -9.8219,21.938 -21.938,21.938 -12.1161,0 -21.938,-9.8219 -21.938,-21.938 0,-12.1161 9.8219,-21.938 21.938,-21.938 z m 0,5.0143 c 9.3466,0 16.9236,7.577 16.9236,16.9237 0,9.3466 -7.577,16.9236 -16.9236,16.9236 -9.3467,0 -16.9237,-7.577 -16.9237,-16.9236 0,-9.3467 7.577,-16.9237 16.9237,-16.9237 z"
         style="fill:#54a800;fill-rule:evenodd"
         id="path3722"
         inkscape:connector-curvature="0" />
      <path
         d="m 317.65349,285.58751 14.491,19.1316 q 2.5661,3.3878 5.9539,0.8218 v 0 q 3.3879,-2.5661 0.8218,-5.954 l -14.491,-19.1316 q -2.5661,-3.3878 -5.9539,-0.8217 v 0 q -3.3879,2.5661 -0.8218,5.9539 z"
         style="fill:#54a800;fill-rule:evenodd"
         id="path3724"
         inkscape:connector-curvature="0" />
    </g>
  </g>
  <path
     d="M 165.4526,183.3962 V 312.8964 H 365.4527 V 183.3962 Z"
     style="fill:none;stroke:#ffffff;stroke-width:0.56690001;stroke-linecap:butt;stroke-linejoin:miter;stroke-dasharray:none"
     id="path3728"
     inkscape:connector-curvature="0" />
</svg>
